<?xml version="1.0" encoding="UTF-8" standalone="no"?>
<!-- Created with Inkscape (http://www.inkscape.org/) -->

<svg
   width="265.11249mm"
   height="165.89375mm"
   viewBox="0 0 265.11249 165.89375"
   version="1.1"
   id="svg1"
   xml:space="preserve"
   xmlns="http://www.w3.org/2000/svg"
   xmlns:svg="http://www.w3.org/2000/svg"><defs
     id="defs1" /><g
     id="layer1"
     transform="translate(-15.610423,-26.061457)"><path
       style="fill:#000000"
       d="m 131.15447,167.37488 c -1.53279,-0.52248 -1.76392,-0.8456 -1.76917,-2.47332 -0.007,-2.12176 1.45566,-2.99612 2.7861,-1.66567 0.73069,0.73069 0.854,1.98042 0.3014,3.05474 -0.28432,0.55274 -0.27709,0.70917 0.044,0.9518 0.67388,0.50923 -0.0504,0.57965 -1.36231,0.13245 z m 0.23769,-0.75758 c 1.03147,-0.68872 1.0538,-2.72971 0.0358,-3.27451 -1.15857,-0.62005 -2.00835,1.60024 -1.10569,2.88896 0.44084,0.62939 0.6122,0.69115 1.06986,0.38555 z m 107.79117,0.82465 c -1.50149,-0.44499 -2.11667,-1.17611 -2.11667,-2.51558 0,-1.11597 0.90239,-2.33991 1.72516,-2.33991 1.56896,0 2.45602,2.5279 1.37237,3.91087 -0.18852,0.24059 -0.12738,0.44009 0.21059,0.68722 0.72157,0.52763 0.14249,0.65274 -1.19145,0.2574 z m 0.38187,-1.2102 c 0.22653,-0.32342 0.41188,-0.89224 0.41188,-1.26404 0,-0.70361 -0.65385,-1.85208 -1.05444,-1.85208 -0.54549,0 -1.06223,0.90097 -1.06223,1.85208 0,0.95111 0.51674,1.85208 1.06223,1.85208 0.12688,0 0.41603,-0.26461 0.64256,-0.58804 z m -165.079928,0.48486 c -0.81366,-0.81366 -0.910668,-2.4471 -0.197627,-3.32767 0.533221,-0.6585 2.177156,-0.88566 2.373082,-0.32792 0.08671,0.24682 -0.06505,0.29577 -0.544191,0.17551 -0.476801,-0.11967 -0.82033,-0.0109 -1.216521,0.38533 -1.161259,1.16126 -0.257578,3.447 1.216521,3.07703 0.477296,-0.11979 0.632756,-0.0704 0.551979,0.17551 -0.211078,0.64249 -1.474255,0.5512 -2.183243,-0.15779 z m 3.765252,0.48078 c -0.297854,-0.30201 -0.238954,-4.29008 0.06615,-4.47864 0.157458,-0.0973 0.264584,0.21774 0.264584,0.77814 0,0.89979 0.04117,0.94165 0.926041,0.94165 0.884869,0 0.926042,-0.0419 0.926042,-0.94165 0,-0.5604 0.107125,-0.87545 0.264583,-0.77814 0.145521,0.0899 0.264583,1.10197 0.264583,2.24896 0,1.14699 -0.119062,2.15902 -0.264583,2.24896 -0.15979,0.0987 -0.264583,-0.26184 -0.264583,-0.91043 0,-1.04756 -0.02238,-1.07395 -0.910829,-1.07395 -0.876474,0 -0.913897,0.0409 -0.992187,1.08316 -0.04475,0.59573 -0.170656,0.99261 -0.279797,0.88194 z m 8.315463,-0.46097 c -0.171499,-0.40965 -0.311817,-0.8434 -0.311817,-0.96388 0,-0.18884 -0.616423,-0.54025 -0.947681,-0.54025 -0.06086,0 -0.110652,0.41672 -0.110652,0.92604 0,0.50933 -0.123878,0.92605 -0.275284,0.92605 -0.174621,0 -0.247183,-0.79819 -0.198438,-2.18282 0.07464,-2.11998 0.09628,-2.18507 0.75211,-2.26148 1.018465,-0.11865 1.761692,0.81401 1.403947,1.76178 -0.16989,0.45009 -0.185878,0.97351 -0.04165,1.36341 0.12876,0.34807 0.190722,0.87656 0.137694,1.17442 -0.08535,0.47938 -0.132219,0.45604 -0.408234,-0.20327 z m -0.311817,-2.43017 c 0.26278,-0.31663 0.26278,-0.47712 0,-0.79375 -0.550764,-0.66363 -1.058333,-0.47329 -1.058333,0.39688 0,0.87016 0.507569,1.0605 1.058333,0.39687 z m 2.704704,2.63083 c -0.510831,-0.3578 -0.588038,-0.65103 -0.588038,-2.23334 0,-2.42346 0.423862,-2.5953 0.592371,-0.24016 0.147265,2.05821 0.471065,2.6488 1.200849,2.19025 0.348408,-0.21891 0.474086,-0.73355 0.533644,-2.18521 0.09958,-2.42721 0.583553,-2.23222 0.583553,0.23512 0,1.58231 -0.07721,1.87554 -0.588038,2.23334 -0.323421,0.22653 -0.713648,0.41188 -0.86717,0.41188 -0.153523,0 -0.54375,-0.18535 -0.867171,-0.41188 z m 3.965724,-1.90322 c 0.07527,-2.27933 0.08718,-2.31635 0.770787,-2.39562 0.949898,-0.11014 1.648579,0.62593 1.43455,1.51133 -0.191974,0.79417 -0.19192,0.86518 0.0017,2.27335 0.136263,0.99087 0.119374,1.02559 -0.264935,0.54474 -0.225761,-0.28247 -0.410474,-0.71622 -0.410474,-0.96388 0,-0.37361 -0.488739,-0.77149 -0.947681,-0.77149 -0.06086,0 -0.110652,0.47625 -0.110652,1.05834 0,0.58208 -0.123698,1.05833 -0.274885,1.05833 -0.175004,0 -0.247107,-0.8412 -0.198437,-2.3151 z m 1.399363,-1.12448 c 0,-0.4127 -0.17093,-0.68713 -0.463021,-0.74339 -0.361766,-0.0697 -0.46302,0.0929 -0.46302,0.74339 0,0.65048 0.101254,0.81305 0.46302,0.74338 0.292091,-0.0563 0.463021,-0.33068 0.463021,-0.74338 z m 3.175,3.12342 c -0.782855,-0.44393 -0.917521,-0.74923 -0.92199,-2.09023 -0.0029,-0.86961 0.141653,-1.34762 0.507691,-1.67888 0.613522,-0.55523 2.159158,-0.68966 2.330231,-0.20267 0.0867,0.24682 -0.06505,0.29577 -0.544192,0.17551 -0.877156,-0.22015 -1.768615,0.65244 -1.768615,1.73118 0,0.84664 0.876347,1.95676 1.405599,1.78055 0.493842,-0.16442 0.545523,-1.04263 0.07679,-1.30495 -0.672058,-0.3761 -0.493338,-0.7833 0.303545,-0.69161 0.646856,0.0744 0.736447,0.20469 0.807283,1.1738 0.06922,0.947 -2.39e-4,1.11149 -0.529167,1.25316 -0.829145,0.22208 -1.052832,0.20251 -1.667178,-0.14586 z m 5.800099,-0.0393 c -0.075,-0.19552 -0.10105,-1.23732 -0.0578,-2.31511 l 0.0786,-1.95961 0.99219,-0.0821 c 0.57436,-0.0475 0.99219,0.036 0.99219,0.19844 0,0.15431 -0.35719,0.28056 -0.79375,0.28056 -0.6645,0 -0.79375,0.10484 -0.79375,0.64388 0,0.50065 0.15732,0.66251 0.7072,0.7276 1.04158,0.12331 1.11754,0.74518 0.091,0.74518 -0.75304,0 -0.8253,0.0701 -0.74965,0.72761 0.0699,0.60728 0.22675,0.74137 0.94864,0.81088 0.4757,0.0458 0.7961,0.19464 0.71199,0.33073 -0.23713,0.38369 -1.97193,0.29556 -2.12681,-0.10804 z m 5.61389,0.17191 c -0.0931,-0.0931 -0.1692,-1.10559 -0.1692,-2.25007 0,-2.26114 0.18404,-2.53924 1.46726,-2.21718 1.31677,0.33049 1.37143,2.14288 0.0793,2.63059 -0.5734,0.21644 -0.75285,0.45582 -0.75285,1.0043 0,0.7271 -0.31286,1.14405 -0.62455,0.83236 z m 1.63973,-3.09505 c 0.0872,-0.45286 -0.33195,-0.94075 -0.81674,-0.95065 -0.10914,-0.002 -0.19844,0.36186 -0.19844,0.8091 0,0.62996 0.10363,0.79319 0.45998,0.72456 0.25299,-0.0487 0.50283,-0.31107 0.5552,-0.58301 z m 2.0068,2.92314 c -0.23617,-0.61545 0.008,-4.27472 0.28531,-4.27472 0.14699,0 0.29893,0.91141 0.34186,2.05052 l 0.0773,2.05052 h 0.78262 c 0.43044,0 0.78262,0.11907 0.78262,0.26459 0,0.4084 -2.11052,0.32387 -2.26969,-0.0909 z m 3.26454,0.20382 c -0.21587,-0.21587 1.25252,-4.47854 1.54275,-4.47854 0.40303,0 1.74544,4.15717 1.44079,4.46182 -0.17998,0.17998 -0.36328,-0.008 -0.56122,-0.57592 -0.40141,-1.15149 -1.39627,-1.17897 -1.79003,-0.0494 -0.28446,0.81601 -0.37074,0.90363 -0.63229,0.64208 z m 1.91151,-2.29573 c -0.005,-0.42901 -0.51566,-1.22772 -0.52106,-0.81539 -0.002,0.17 -0.0763,0.49742 -0.16465,0.72761 -0.10539,0.27463 -0.0144,0.41851 0.26458,0.41851 0.23385,0 0.42336,-0.14883 0.42113,-0.33073 z m 2.71603,2.27217 c -0.59611,-0.24054 -0.34634,-0.58694 0.38651,-0.53604 1.08405,0.0753 1.11461,-0.766 0.0598,-1.64658 -0.71153,-0.59401 -0.82889,-0.8392 -0.68192,-1.42475 0.1797,-0.71601 1.17648,-1.20636 1.74191,-0.8569 0.47271,0.29215 0.30934,0.71584 -0.21219,0.55031 -0.72538,-0.23022 -1.25196,0.49704 -0.69322,0.95741 1.64547,1.3558 1.7818,1.74127 0.92045,2.60261 -0.52563,0.52563 -0.88732,0.60978 -1.52136,0.35394 z m 4.0718,-0.008 c -0.093,-0.0931 -0.16919,-1.04232 -0.16919,-2.10948 0,-1.78242 -0.0443,-1.94027 -0.54478,-1.94027 -0.29963,0 -0.4712,-0.11907 -0.38126,-0.26459 0.0899,-0.14552 0.7518,-0.26458 1.47082,-0.26458 0.71902,0 1.3073,0.11906 1.3073,0.26458 0,0.14552 -0.23812,0.26459 -0.52917,0.26459 -0.48175,0 -0.52916,0.17638 -0.52916,1.96876 0,1.81938 -0.20457,2.50098 -0.62456,2.08099 z m 10.05827,-0.30028 c -0.32246,-0.35632 -0.43788,-0.98808 -0.43788,-2.39686 0,-1.20797 0.0975,-1.85274 0.26458,-1.74949 0.14553,0.0899 0.26459,0.91582 0.26459,1.8353 0,1.16325 0.12072,1.77197 0.39687,2.00116 0.71108,0.59014 1.15941,-0.1334 1.2452,-2.00957 0.10384,-2.27056 0.60689,-2.06737 0.60689,0.24514 0,1.48386 -0.0919,1.87464 -0.51359,2.18281 -0.69504,0.50799 -1.30135,0.47198 -1.82666,-0.10849 z m 4.06004,-1.89739 v -2.38125 h 0.91042 c 0.50074,0 0.98402,0.11906 1.07395,0.26458 0.0954,0.15437 -0.17364,0.26459 -0.64584,0.26459 -0.68693,0 -0.80937,0.10005 -0.80937,0.66145 0,0.52917 0.1323,0.66146 0.66146,0.66146 0.41158,0 0.66146,0.14993 0.66146,0.39688 0,0.24694 -0.24988,0.39687 -0.66146,0.39687 -0.55856,0 -0.66146,0.12347 -0.66146,0.79375 0,0.70556 0.0882,0.79375 0.79375,0.79375 0.43657,0 0.79375,0.11907 0.79375,0.26459 0,0.14552 -0.47625,0.26458 -1.05833,0.26458 h -1.05833 z m 10.49597,2.0919 c -0.11114,-0.23189 -0.16672,-1.30346 -0.1235,-2.38125 0.0765,-1.90755 0.0975,-1.96179 0.79015,-2.04178 0.89722,-0.10362 1.93721,0.84103 1.64225,1.49169 -0.18846,0.41574 -0.19976,1.05508 -0.0405,2.29465 0.10913,0.84967 -0.40326,0.86803 -0.62938,0.0225 -0.19005,-0.71063 -0.62375,-1.19918 -1.07338,-1.20913 -0.10077,-0.002 -0.22378,0.50197 -0.27336,1.12043 -0.0605,0.75521 -0.15651,0.98602 -0.29223,0.70284 z m 1.63204,-2.98624 c 0.0522,-0.2736 -0.0657,-0.5992 -0.26188,-0.72355 -0.68307,-0.43288 -1.01822,-0.24265 -1.01822,0.57796 0,0.68991 0.0892,0.79942 0.59261,0.7276 0.32742,-0.0467 0.63507,-0.30716 0.68749,-0.58201 z m 2.15949,0.89434 v -2.38125 h 0.91042 c 0.50074,0 0.98401,0.11906 1.07395,0.26458 0.0954,0.15437 -0.17364,0.26459 -0.64584,0.26459 -0.68694,0 -0.80937,0.10005 -0.80937,0.66145 0,0.52917 0.1323,0.66146 0.66146,0.66146 0.41158,0 0.66146,0.14993 0.66146,0.39688 0,0.24694 -0.24988,0.39687 -0.66146,0.39687 -0.55856,0 -0.66146,0.12347 -0.66146,0.79375 0,0.70896 0.0865,0.79375 0.80937,0.79375 0.4722,0 0.74124,0.11022 0.64584,0.26459 -0.0899,0.14552 -0.57321,0.26458 -1.07395,0.26458 h -0.91042 z m 4.25177,2.05195 c -1.08087,-0.55834 -1.34053,-3.13618 -0.39494,-3.92095 0.52496,-0.43567 2.0152,-0.45044 2.16555,-0.0215 0.0921,0.26276 -0.0291,0.30938 -0.45379,0.17458 -0.86114,-0.27331 -1.59984,0.51897 -1.59984,1.71588 0,1.19691 0.7387,1.98919 1.59984,1.71587 0.42316,-0.1343 0.54756,-0.0872 0.46126,0.17459 -0.16085,0.48796 -0.99874,0.56406 -1.77808,0.16149 z m 3.54141,-0.32013 c -1.29373,-1.29373 -0.4776,-4.11307 1.19062,-4.11307 0.96152,0 1.59995,0.9264 1.59548,2.3151 -0.005,1.40788 -0.1394,1.70562 -0.97074,2.14321 -0.82595,0.43474 -1.08456,0.38556 -1.81536,-0.34524 z m 1.90026,-0.55924 c 0.529,-0.80736 0.25499,-2.39416 -0.49421,-2.86197 -1.16904,-0.72997 -2.01481,2.33645 -0.87442,3.17032 0.69688,0.50958 0.85623,0.47368 1.36863,-0.30835 z m 2.3308,0.86995 c -0.24266,-0.63238 -0.003,-4.29323 0.27888,-4.26524 0.14552,0.0144 0.62177,0.6514 1.05833,1.41548 l 0.79375,1.38923 0.082,-1.28319 c 0.15259,-2.38722 0.57944,-1.89816 0.57944,0.66389 0,2.75383 -0.13181,2.82798 -1.32594,0.74588 l -0.78576,-1.37004 -0.002,1.37345 c -0.002,1.33159 -0.38775,2.08754 -0.67824,1.33054 z m 4.44607,0.16349 c -0.65336,-0.26364 -0.31347,-0.61919 0.529,-0.55338 0.70863,0.0554 0.87428,-0.0348 0.94245,-0.51289 0.0604,-0.42331 -0.1362,-0.69323 -0.72745,-0.99898 -1.06178,-0.54906 -1.15529,-1.84694 -0.16556,-2.29789 0.69001,-0.31439 1.47208,-0.15407 1.47208,0.30177 0,0.16406 -0.26999,0.21017 -0.65899,0.11253 -0.8764,-0.21996 -1.24502,0.59534 -0.50848,1.12465 1.61459,1.1603 1.77472,1.59842 0.90289,2.47025 -0.51275,0.51275 -1.10264,0.62966 -1.78594,0.35394 z m 4.33638,-0.008 c -0.0931,-0.0931 -0.16919,-1.04232 -0.16919,-2.10948 0,-1.76389 -0.0481,-1.94027 -0.52917,-1.94027 -0.29104,0 -0.52917,-0.11907 -0.52917,-0.26459 0,-0.14552 0.58829,-0.26458 1.3073,-0.26458 0.71902,0 1.38089,0.11906 1.47083,0.26458 0.0899,0.14552 -0.0816,0.26459 -0.38126,0.26459 -0.50118,0 -0.54478,0.15757 -0.54478,1.96876 0,1.81938 -0.20457,2.50098 -0.62456,2.08099 z m 2.93966,0.032 c -0.10914,-0.11066 -0.19844,-1.1376 -0.19844,-2.28208 0,-2.25551 0.18526,-2.53894 1.45177,-2.22106 0.75643,0.18985 1.16279,1.30994 0.72789,2.00634 -0.16952,0.27143 -0.1863,0.59322 -0.0428,0.81996 0.30748,0.48573 0.31499,1.9033 0.009,1.71423 -0.1294,-0.08 -0.31743,-0.47276 -0.41785,-0.87286 -0.17012,-0.67782 -0.55373,-1.11603 -0.98531,-1.12558 -0.10077,-0.002 -0.21984,0.48337 -0.26458,1.07911 -0.0447,0.59573 -0.17066,0.99261 -0.2798,0.88194 z m 1.38906,-2.89114 c 0.26278,-0.31663 0.26278,-0.47712 0,-0.79375 -0.55076,-0.66363 -1.05833,-0.47329 -1.05833,0.39688 0,0.87016 0.50757,1.0605 1.05833,0.39687 z m 2.78107,2.6807 c -0.39694,-0.29024 -0.49875,-0.72296 -0.51359,-2.18281 -0.0243,-2.38823 0.485,-2.66716 0.58836,-0.32225 0.0855,1.94015 0.52465,2.67133 1.2452,2.07332 0.27615,-0.22919 0.39688,-0.83791 0.39688,-2.00116 0,-0.91948 0.11906,-1.74536 0.26458,-1.8353 0.16729,-0.10339 0.26459,0.55685 0.26459,1.79546 0,1.56181 -0.0981,2.04776 -0.48386,2.39687 -0.58862,0.53269 -1.10691,0.55501 -1.76216,0.0759 z m 4.68784,0.18493 c -0.43816,-0.1763 -1.11891,-1.50176 -1.11891,-2.17858 0,-1.44433 1.41037,-2.66667 2.63017,-2.27952 0.73182,0.23227 0.41645,0.7107 -0.34285,0.52012 -0.69229,-0.17375 -1.36384,0.4531 -1.63059,1.52206 -0.14018,0.56174 -0.0291,0.86348 0.52032,1.41285 0.41741,0.41741 0.86318,0.6354 1.10755,0.54162 0.56557,-0.21702 1.04634,0.1125 0.58792,0.40297 -0.38934,0.2467 -1.21718,0.2743 -1.75361,0.0585 z m 4.06819,-0.24295 c -0.088,-0.22935 -0.16001,-1.18117 -0.16001,-2.11515 0,-1.53799 -0.0514,-1.69815 -0.54479,-1.69815 -0.29963,0 -0.47119,-0.11907 -0.38126,-0.26459 0.0899,-0.14552 0.75181,-0.26458 1.47083,-0.26458 0.71901,0 1.3073,0.11906 1.3073,0.26458 0,0.14552 -0.23813,0.26459 -0.52917,0.26459 -0.48175,0 -0.52916,0.17638 -0.52916,1.96876 0,1.8819 -0.2926,2.73353 -0.63374,1.84454 z m 2.8684,0.0813 c -0.0786,-0.20474 -0.10749,-1.25409 -0.0643,-2.33188 0.0765,-1.90755 0.0975,-1.96179 0.79015,-2.04178 0.89389,-0.10323 1.93543,0.84019 1.64684,1.49169 -0.2552,0.5761 -0.25009,1.31773 0.0156,2.263 0.1677,0.59665 0.1343,0.73549 -0.15386,0.63953 -0.20244,-0.0674 -0.41065,-0.35082 -0.46269,-0.62981 -0.11114,-0.59582 -0.53457,-1.1687 -0.86382,-1.1687 -0.1277,0 -0.23219,0.40969 -0.23219,0.91043 0,0.95383 -0.43053,1.50655 -0.67575,0.86752 z m 1.69093,-2.93991 c 0.0872,-0.45286 -0.33195,-0.94075 -0.81674,-0.95065 -0.10914,-0.002 -0.19844,0.36186 -0.19844,0.8091 0,0.62996 0.10363,0.79319 0.45998,0.72456 0.25299,-0.0487 0.50283,-0.31107 0.5552,-0.58301 z m 4.72505,2.74285 c -1.53282,-1.20572 -0.52312,-4.39639 1.32203,-4.17766 0.38618,0.0458 0.75274,0.23725 0.81459,0.4255 0.0787,0.2395 -0.0741,0.29829 -0.50877,0.1958 -0.72904,-0.17188 -1.08461,0.0301 -1.52525,0.86651 -0.69061,1.31087 0.34315,2.95213 1.6068,2.55106 0.39535,-0.12548 0.51727,-0.0737 0.43262,0.18378 -0.19261,0.5859 -1.37146,0.56113 -2.14202,-0.045 z m 3.52019,-1.84547 v -2.38125 h 1.04272 c 0.57349,0 1.1163,0.11906 1.20624,0.26458 0.0973,0.15746 -0.21774,0.26459 -0.77814,0.26459 -0.82119,0 -0.94166,0.0824 -0.94166,0.64388 0,0.49048 0.15956,0.66383 0.66969,0.7276 0.36832,0.0461 0.66968,0.20279 0.66968,0.34831 0,0.14552 -0.30136,0.30225 -0.66968,0.3483 -0.54531,0.0682 -0.66969,0.22787 -0.66969,0.8599 0,0.71312 0.0765,0.77617 0.94166,0.77617 0.5604,0 0.87545,0.10713 0.77814,0.26459 -0.0899,0.14552 -0.63275,0.26458 -1.20624,0.26458 h -1.04272 z m 10.75972,2.20486 c -0.097,-0.097 -0.17639,-1.16858 -0.17639,-2.38125 v -2.20486 h 0.91043 c 0.50073,0 0.98401,0.11906 1.07395,0.26458 0.0954,0.15437 -0.17365,0.26459 -0.64585,0.26459 -0.68104,0 -0.80936,0.10208 -0.80936,0.64388 0,0.49048 0.15955,0.66383 0.66968,0.7276 0.36833,0.0461 0.66969,0.20279 0.66969,0.34831 0,0.14552 -0.30136,0.30225 -0.66969,0.3483 -0.54531,0.0682 -0.66968,0.22787 -0.66968,0.8599 0,0.68603 0.0922,0.77617 0.79375,0.77617 0.43656,0 0.79375,0.11907 0.79375,0.26459 0,0.29272 -1.66028,0.36819 -1.94028,0.0882 z m 3.32934,0.001 c -0.55945,-0.22574 -0.36546,-0.68932 0.22396,-0.53518 1.38197,0.36139 1.81374,-0.86107 0.53727,-1.52116 -0.99192,-0.51294 -1.20963,-1.35492 -0.52689,-2.03767 0.56586,-0.56585 1.57141,-0.57657 1.75521,-0.0187 0.0817,0.2479 -0.0761,0.29487 -0.57213,0.17037 -1.13542,-0.28497 -1.16128,0.51841 -0.0504,1.56609 0.6898,0.65057 0.90745,1.03873 0.78257,1.39562 -0.33114,0.94632 -1.22454,1.35389 -2.14958,0.98063 z m 4.36562,0.0222 c -0.10914,-0.10989 -0.19843,-1.07292 -0.19843,-2.14008 0,-1.90517 -0.0122,-1.94027 -0.67708,-1.94027 -0.384,0 -0.60629,-0.11453 -0.51355,-0.26459 0.0899,-0.14552 0.81134,-0.26458 1.60312,-0.26458 0.79177,0 1.43959,0.11906 1.43959,0.26458 0,0.14552 -0.29284,0.26459 -0.65076,0.26459 -0.63132,0 -0.65305,0.0639 -0.7276,2.14008 -0.0423,1.17704 -0.16614,2.05017 -0.27529,1.94027 z m 2.71198,-2.21266 c 0,-1.42152 0.10767,-2.39686 0.26459,-2.39686 0.14552,0 0.26458,0.41672 0.26458,0.92604 0,0.85255 0.063,0.92604 0.79375,0.92604 0.60608,0 0.79375,-0.11999 0.79375,-0.50752 0,-0.74853 0.28609,-1.3625 0.55689,-1.19513 0.13027,0.0805 0.23686,1.08483 0.23686,2.23182 0,1.14699 -0.10659,2.15131 -0.23686,2.23182 -0.28864,0.17839 -0.55689,-0.46103 -0.55689,-1.32742 0,-0.53452 -0.13063,-0.63982 -0.79375,-0.63982 -0.72816,0 -0.79375,0.0752 -0.79375,0.91043 0,0.50073 -0.11906,0.98401 -0.26458,1.07395 -0.16895,0.10442 -0.26459,-0.70281 -0.26459,-2.23335 z m 4.67431,2.18925 c -0.097,-0.097 -0.17639,-1.16858 -0.17639,-2.38125 0,-1.80357 0.0737,-2.20486 0.40518,-2.20486 0.22285,0 0.47371,-0.17859 0.55747,-0.39688 0.0838,-0.21828 0.33089,-0.39687 0.54917,-0.39687 0.22848,0 0.33751,0.15471 0.25695,0.36463 -0.0769,0.20055 -0.006,0.49821 0.15691,0.66146 0.21937,0.21938 0.0759,0.29683 -0.54985,0.29683 -0.72672,0 -0.84666,0.0937 -0.84666,0.66145 0,0.52917 0.13229,0.66146 0.66145,0.66146 0.41158,0 0.66146,0.14993 0.66146,0.39688 0,0.24694 -0.24988,0.39687 -0.66146,0.39687 -0.55856,0 -0.66145,0.12347 -0.66145,0.79375 0,0.70556 0.0882,0.79375 0.79375,0.79375 0.43656,0 0.79375,0.11907 0.79375,0.26459 0,0.29272 -1.66028,0.36819 -1.94028,0.0882 z m 4.25538,0.0234 c -0.10914,-0.10989 -0.19844,-1.07292 -0.19844,-2.14008 0,-1.76389 -0.0481,-1.94027 -0.52916,-1.94027 -0.29105,0 -0.52917,-0.11907 -0.52917,-0.26459 0,-0.14552 0.58829,-0.26458 1.3073,-0.26458 0.71902,0 1.38089,0.11906 1.47082,0.26458 0.0925,0.14964 -0.12597,0.26459 -0.50285,0.26459 -0.65085,0 -0.66816,0.0498 -0.74322,2.14008 -0.0423,1.17704 -0.16614,2.05017 -0.27528,1.94027 z m 10.01849,-0.1889 c -0.52438,-0.38343 -0.91303,-3.24428 -0.55321,-4.0721 0.17672,-0.40655 0.2386,-0.35822 0.40071,0.31294 0.10544,0.43656 0.2058,1.34656 0.22302,2.02221 0.0229,0.8994 0.15346,1.27534 0.48734,1.40346 0.70921,0.27215 1.13146,-0.57499 1.13146,-2.27 0,-0.83673 0.11907,-1.5949 0.26459,-1.68484 0.16653,-0.10292 0.26458,0.5068 0.26458,1.64531 0,2.57406 -0.87963,3.62202 -2.21849,2.64302 z m 3.91755,-0.0136 c -0.075,-0.19552 -0.10106,-1.23732 -0.0578,-2.31511 l 0.0786,-1.95961 0.99219,-0.0821 c 0.57435,-0.0475 0.99219,0.036 0.99219,0.19844 0,0.15431 -0.28378,0.28056 -0.63062,0.28056 -0.46255,0 -0.66431,0.17628 -0.75706,0.66145 -0.11104,0.58091 -0.0342,0.66146 0.63062,0.66146 0.49655,0 0.75706,0.13657 0.75706,0.39688 0,0.24694 -0.24989,0.39687 -0.66146,0.39687 -0.55857,0 -0.66146,0.12347 -0.66146,0.79375 0,0.70896 0.0865,0.79375 0.80936,0.79375 0.47221,0 0.74125,0.11022 0.64585,0.26459 -0.24501,0.39643 -1.97868,0.32269 -2.1374,-0.0909 z m -191.494558,-0.5223 c -0.563888,-2.36558 -0.768957,-7.61218 -0.606866,-15.52638 0.349667,-17.07265 1.203377,-22.49178 5.126824,-32.54375 0.653191,-1.67349 1.706321,-4.55338 2.340291,-6.39976 0.63397,-1.84638 1.981931,-5.23966 2.995469,-7.54062 2.124816,-4.823827 2.818298,-6.84524 4.294508,-12.517952 1.060105,-4.073723 1.066382,-4.126598 0.94225,-7.9375 -0.149085,-4.576993 -0.490988,-5.845494 -2.296563,-8.520509 -1.469406,-2.176972 -3.420214,-3.841939 -6.764463,-5.773304 -1.219806,-0.70446 -3.129012,-1.973494 -4.24268,-2.820075 -1.113668,-0.846581 -2.515677,-1.869392 -3.115576,-2.272914 -0.599898,-0.403522 -1.259396,-0.902347 -1.46555,-1.108501 -0.529728,-0.529728 -0.425493,-1.850362 0.22972,-2.91052 0.306969,-0.496686 0.951787,-1.905811 1.432928,-3.131389 2.032218,-5.176524 6.110862,-9.3319 16.232104,-16.537481 2.264806,-1.612376 3.243109,-1.964635 3.243109,-1.167752 0,0.358655 -0.842763,1.1755 -2.61191,2.531584 -3.684936,2.82457 -9.853467,8.135851 -10.84949,9.341719 -0.461565,0.558809 -1.361545,2.087579 -1.999957,3.397266 -2.518237,5.166113 -2.418035,8.765674 0.303953,10.91894 0.551208,0.43604 2.192821,1.421395 3.64803,2.189676 6.472115,3.416972 9.361467,6.514952 10.605693,11.371484 1.126634,4.397542 -0.670952,16.438571 -3.771259,25.261568 -0.664748,1.89177 -1.451582,3.91583 -1.748519,4.49792 -0.296938,0.58208 -1.607468,3.6777 -2.91229,6.87916 -1.304821,3.20146 -2.775165,6.78942 -3.267429,7.97324 -0.909518,2.18725 -1.52452,4.44324 -3.065988,11.24683 l -0.860654,3.79868 -0.0013,10.05417 c -0.0012,8.72026 0.06451,10.4052 0.495056,12.7 0.273022,1.45521 0.51026,2.80575 0.527195,3.00121 0.01694,0.19545 -0.5834,0.75295 -1.334078,1.23888 -1.341196,0.86818 -1.367257,0.87349 -1.502511,0.30608 z m 27.341338,-1.63575 c 0,-1.82269 0.07523,-2.24896 0.396875,-2.24896 0.32165,0 0.396875,0.42627 0.396875,2.24896 0,1.82268 -0.07523,2.24896 -0.396875,2.24896 -0.32165,0 -0.396875,-0.42628 -0.396875,-2.24896 z m 18.78542,0 c 0,-1.32292 0.10894,-2.24896 0.26458,-2.24896 0.15564,0 0.26458,0.92604 0.26458,2.24896 0,1.32291 -0.10894,2.24896 -0.26458,2.24896 -0.15564,0 -0.26458,-0.92605 -0.26458,-2.24896 z m 26.19374,0 c 0,-1.82269 0.0752,-2.24896 0.39688,-2.24896 0.32165,0 0.39687,0.42627 0.39687,2.24896 0,1.82268 -0.0752,2.24896 -0.39687,2.24896 -0.32165,0 -0.39688,-0.42628 -0.39688,-2.24896 z m 68.79167,-0.0221 c 0,-1.69881 0.0833,-2.24342 0.33073,-2.16152 0.21978,0.0728 0.3565,0.83458 0.40757,2.27101 0.0641,1.80344 0.009,2.16152 -0.33073,2.16152 -0.33539,0 -0.40757,-0.40223 -0.40757,-2.27101 z m 39.15833,0.0221 c 0,-1.32292 0.10895,-2.24896 0.26458,-2.24896 0.15564,0 0.26459,0.92604 0.26459,2.24896 0,1.32291 -0.10895,2.24896 -0.26459,2.24896 -0.15563,0 -0.26458,-0.92605 -0.26458,-2.24896 z m -91.28125,0.52916 c 0,-0.3262 0.20819,-0.41033 0.8599,-0.34749 0.47294,0.0456 0.8599,0.20197 0.8599,0.34749 0,0.14553 -0.38696,0.3019 -0.8599,0.3475 -0.65171,0.0628 -0.8599,-0.0213 -0.8599,-0.3475 z m 63.94097,0.22049 c -0.39541,-0.39541 -0.12591,-0.61736 0.74966,-0.61736 0.64676,0 0.92604,0.11969 0.92604,0.39687 0,0.40464 -1.31811,0.57807 -1.6757,0.22049 z m -98.6887,-9.71327 c -1.66678,-0.46698 -2.1846,-0.96754 -1.78102,-1.72163 l 0.29999,-0.56053 1.058,0.53975 c 1.15873,0.59114 3.36884,0.7387 4.50256,0.30062 0.3767,-0.14556 1.00178,-0.64123 1.38906,-1.10149 0.56449,-0.67085 0.70415,-1.10912 0.70415,-2.20972 0,-2.10846 -0.63392,-3.02661 -2.95157,-4.27505 -2.77457,-1.49456 -3.60053,-2.14755 -4.19817,-3.31903 -1.17232,-2.29792 -0.34694,-5.10015 1.86607,-6.33545 1.37322,-0.76653 4.02876,-0.91208 5.4821,-0.30048 0.95714,0.40279 1.0092,0.52151 0.5213,1.18875 -0.26753,0.36588 -0.47848,0.40987 -1.00518,0.20962 -0.70993,-0.26992 -2.01169,-0.40841 -3.24674,-0.34541 -0.46993,0.024 -1.09303,0.37743 -1.65365,0.93804 -0.78428,0.78428 -0.89958,1.06994 -0.89958,2.22866 0,1.75927 0.63796,2.4952 3.73959,4.31391 2.99436,1.75581 3.7328,2.7281 3.88479,5.11503 0.10714,1.68249 -0.2479,2.81081 -1.24014,3.94129 -1.21271,1.38165 -4.20974,2.02682 -6.47156,1.39312 z m 69.73368,-0.12046 c -1.73148,-0.61524 -1.802,-0.68721 -1.44381,-1.47334 l 0.29059,-0.63778 1.05761,0.52327 c 1.30917,0.64772 3.62726,0.69357 4.78546,0.0947 1.33475,-0.69023 1.90996,-1.85785 1.79533,-3.64435 -0.1224,-1.90743 -0.7349,-2.60562 -3.67327,-4.18713 -2.41031,-1.29729 -3.51787,-2.41357 -3.93622,-3.9672 -1.0082,-3.74417 2.56043,-6.77765 6.79078,-5.77243 1.5539,0.36925 1.93105,0.77085 1.44044,1.53384 -0.1999,0.31087 -0.37538,0.3168 -1.05421,0.0356 -1.21536,-0.50341 -3.30066,-0.42261 -4.31026,0.16703 -1.08138,0.63156 -1.6735,2.06302 -1.41761,3.42706 0.22638,1.20673 1.29552,2.25225 3.37822,3.30359 1.89652,0.95736 3.60713,2.46583 4.08166,3.59932 0.55585,1.32776 0.44681,3.25985 -0.25943,4.59709 -1.26856,2.40196 -4.56355,3.45315 -7.52528,2.40077 z m 15.45424,0.068 c -1.77698,-0.56606 -3.61837,-2.44895 -4.3943,-4.49332 -0.74881,-1.9729 -0.99939,-5.5494 -0.54915,-7.83793 1.02216,-5.19556 4.92067,-8.01903 9.30199,-6.73689 1.86432,0.54557 3.13051,1.62812 4.0135,3.43143 1.03333,2.11032 1.33237,3.86011 1.18073,6.90882 -0.15333,3.08261 -0.81638,5.0972 -2.21566,6.73194 -1.69656,1.98206 -4.76251,2.8161 -7.33711,1.99595 z m 4.93008,-1.88199 c 2.09612,-1.45261 3.2641,-4.74995 3.02816,-8.54882 -0.1741,-2.80307 -0.81098,-4.55559 -2.17447,-5.9836 -2.78714,-2.91902 -7.02179,-1.71333 -8.5962,2.4475 -1.89753,5.01479 -0.10808,11.41051 3.56912,12.75645 1.17784,0.43112 3.00698,0.13679 4.17339,-0.67153 z m 11.47808,1.92928 c -3.23452,-1.20452 -3.96741,-3.87428 -3.82063,-13.91768 l 0.0754,-5.15938 0.70238,-0.0813 0.70239,-0.0813 0.0914,7.23266 c 0.0902,7.14361 0.0996,7.24874 0.76436,8.53986 0.82726,1.60684 1.99629,2.35119 3.69263,2.35119 1.69867,0 2.85618,-0.73949 3.68777,-2.35597 0.67101,-1.30436 0.67875,-1.39064 0.76625,-8.54299 l 0.0884,-7.22532 0.70536,0.0816 0.70536,0.0816 0.0738,5.82084 c 0.0834,6.57106 -0.17602,8.91192 -1.19495,10.78403 -1.2553,2.30641 -4.46158,3.43235 -7.03992,2.47219 z m 13.23308,0.005 c -1.60481,-0.44962 -2.05526,-0.88717 -1.74399,-1.69404 l 0.23281,-0.6035 1.07308,0.54744 c 1.1737,0.59878 3.37682,0.74913 4.51763,0.30831 1.50901,-0.5831 2.66951,-2.842 2.22046,-4.32211 -0.4578,-1.50894 -1.22761,-2.30101 -3.26818,-3.36263 -2.57765,-1.34104 -4.17337,-2.83535 -4.41752,-4.1368 -0.6738,-3.59169 1.39965,-6.02017 5.1772,-6.06367 1.58918,-0.0183 3.43958,0.4593 3.43958,0.88777 0,0.10005 -0.15237,0.39029 -0.33859,0.64497 -0.26754,0.36588 -0.47849,0.40987 -1.00519,0.20962 -0.70508,-0.26808 -2.01791,-0.40929 -3.21108,-0.34541 -1.0235,0.0548 -2.50115,1.4374 -2.65476,2.484 -0.28514,1.94279 0.56142,3.1544 3.24087,4.63835 2.51226,1.39137 3.40755,2.1352 4.02693,3.3457 0.6618,1.2934 0.72449,3.66071 0.12736,4.80888 -1.21306,2.33246 -4.44039,3.48697 -7.41661,2.65312 z m 12.91961,0.18988 c -1.6054,-0.34402 -2.77812,-0.95311 -2.77812,-1.44291 0,-0.73321 0.5345,-0.84488 1.70436,-0.35608 1.3804,0.57677 3.62653,0.54887 4.65724,-0.0579 2.1651,-1.27448 2.48982,-4.57053 0.6108,-6.1998 -0.26956,-0.23373 -1.32355,-0.87155 -2.3422,-1.41738 -3.34173,-1.79062 -4.56698,-3.46278 -4.29639,-5.8635 0.34915,-3.09764 3.64437,-4.93264 7.20373,-4.01154 1.30713,0.33826 1.68317,0.78589 1.23869,1.47447 -0.17707,0.2743 -0.49882,0.26627 -1.68232,-0.042 -2.9214,-0.76092 -4.95739,0.29241 -5.16228,2.67076 -0.15983,1.85532 0.47087,2.66879 3.41192,4.4007 2.75117,1.62009 3.44116,2.24791 4.03653,3.67283 0.7949,1.90247 0.46516,3.73377 -0.9648,5.35828 -1.37547,1.56262 -3.54794,2.26171 -5.63716,1.81402 z M 73.289587,146.50806 v -9.51695 l 0.992188,-0.164 c 2.049432,-0.33875 5.27936,-0.17683 6.985654,0.35019 1.990926,0.61493 3.564091,2.04858 4.510192,4.1102 0.525868,1.1459 0.607096,1.74775 0.607058,4.49792 -5.7e-5,4.01001 -0.458413,5.49223 -2.300812,7.4403 -1.966399,2.07918 -3.317831,2.57014 -7.420843,2.6959 l -3.373437,0.1034 z m 7.010527,7.58936 c 1.714723,-0.64156 3.141196,-1.98198 3.918166,-3.68179 0.449126,-0.98258 0.546877,-1.74543 0.559406,-4.36563 0.01346,-2.81492 -0.05513,-3.31718 -0.60476,-4.42866 -1.206342,-2.43949 -3.453326,-3.64113 -6.80868,-3.64113 -2.72001,0 -2.487159,-0.79531 -2.487159,8.49497 v 8.17378 h 1.97445 c 1.353319,0 2.438186,-0.17351 3.448577,-0.55154 z m 9.305445,1.69807 c -0.09701,-0.097 -0.176389,-4.3747 -0.176389,-9.50596 v -9.32958 l 1.480986,-0.18503 c 2.091093,-0.26127 4.846031,-0.0143 6.011802,0.53886 3.036586,1.44096 3.198102,6.58947 0.269669,8.59607 -0.911074,0.62427 -0.924535,0.65751 -0.428898,1.05885 0.928847,0.75213 1.353772,1.69275 2.154792,4.76984 0.435637,1.67349 0.87411,3.3106 0.974383,3.63802 0.161326,0.52677 0.08973,0.59532 -0.621774,0.59532 -0.920759,0 -1.003733,-0.17713 -1.897369,-4.05042 -0.295743,-1.28184 -0.710512,-2.66477 -0.921707,-3.07317 -0.535512,-1.03557 -1.895138,-1.60766 -3.820725,-1.60766 H 91.01667 v 4.36562 4.36563 h -0.617361 c -0.339549,0 -0.696737,-0.0794 -0.79375,-0.17639 z m 5.903753,-10.34121 c 0.506422,-0.25444 1.201462,-0.87933 1.544533,-1.38865 0.527176,-0.78265 0.608139,-1.17979 0.522855,-2.56472 -0.160305,-2.60316 -1.385044,-3.5207 -4.699449,-3.5207 H 91.01667 v 3.96875 3.96875 l 1.785937,-4.1e-4 c 1.172108,-2.7e-4 2.102407,-0.15941 2.706705,-0.46302 z m 23.024028,10.25301 c 0,-0.14552 0.35873,-0.26458 0.79717,-0.26458 h 0.79718 l -0.0696,-9.19174 -0.0696,-9.19175 -0.79375,-0.16966 c -0.43656,-0.0933 0.39688,-0.16373 1.85209,-0.15649 1.4552,0.007 2.19935,0.0599 1.65364,0.11696 l -0.99219,0.10379 v 9.24444 9.24445 h 0.92605 c 0.50932,0 0.92604,0.11906 0.92604,0.26458 0,0.15782 -1.01424,0.26459 -2.51354,0.26459 -1.49931,0 -2.51354,-0.10677 -2.51354,-0.26459 z m 7.32013,0.0882 c -0.097,-0.097 -0.17639,-4.32747 -0.17639,-9.40102 0,-8.53653 0.0345,-9.2388 0.46303,-9.41475 0.25466,-0.10458 1.71317,-0.19014 3.24114,-0.19014 3.58041,0 4.56406,0.43887 5.6224,2.50849 1.2022,2.35095 0.85716,4.20959 -1.14138,6.14829 -1.1865,1.15097 -1.24992,1.2749 -0.81233,1.5875 0.88027,0.62882 1.358,1.69281 2.18171,4.85901 1.04073,4.00043 1.03699,3.93037 0.21474,4.02601 -0.73753,0.0858 -0.90703,-0.3156 -1.98392,-4.69777 -0.8056,-3.27827 -1.61745,-3.98048 -4.60189,-3.98048 h -1.596 v 4.36562 4.36563 h -0.61736 c -0.33955,0 -0.69673,-0.0794 -0.79375,-0.17639 z m 6.33784,-10.55674 c 1.34962,-1.00763 1.80125,-1.86566 1.80125,-3.42208 0,-2.63137 -1.59034,-3.89717 -4.7436,-3.77558 l -1.85208,0.0714 -0.0734,3.93095 -0.0734,3.93095 2.10604,-0.0956 c 1.60908,-0.0731 2.2781,-0.2241 2.83516,-0.64001 z m 4.86286,10.46854 c 0,-0.14552 0.35718,-0.26458 0.79375,-0.26458 h 0.79375 v -9.24365 -9.24366 l -0.8599,-0.10671 c -0.47294,-0.0587 0.39026,-0.11195 1.91823,-0.11836 1.52797,-0.006 2.54,0.0387 2.24896,0.10025 -0.29104,0.0615 -0.79706,0.16906 -1.12448,0.23893 l -0.59531,0.12703 v 9.12308 9.12309 h 0.92604 c 0.50932,0 0.92604,0.11906 0.92604,0.26458 0,0.15782 -1.01424,0.26459 -2.51354,0.26459 -1.49931,0 -2.51354,-0.10677 -2.51354,-0.26459 z m 7.40833,-9.39271 v -9.65729 h 0.65814 c 0.72314,0 0.86086,0.18474 3.45175,4.63021 4.02997,6.91464 5.27044,9.10697 5.92041,10.46338 l 0.70323,1.46755 -0.10689,-8.28057 -0.1069,-8.28057 h 0.82555 0.82554 v 9.53331 c 0,8.58201 -0.0432,9.54987 -0.43283,9.6994 -0.69865,0.26809 -1.14247,-0.19398 -2.5979,-2.70475 -0.75648,-1.30501 -2.30966,-3.98009 -3.45151,-5.94462 -1.14185,-1.96454 -2.58926,-4.52438 -3.21646,-5.68855 l -1.14037,-2.11666 -0.004,8.26823 -0.004,8.26823 h -0.66146 -0.66146 z m 16.32214,9.48708 c -0.10041,-0.10041 -0.18256,-4.44897 -0.18256,-9.66346 v -9.48091 h 4.36563 4.36562 v 0.66146 0.66146 h -3.57187 -3.57188 v 3.57187 3.57188 h 3.43959 3.43958 v 0.66146 0.66146 h -3.43958 -3.43959 v 4.10104 4.10104 h 3.85486 c 3.8463,0 3.85468,0.001 3.77032,0.59531 -0.0833,0.5866 -0.14872,0.59637 -4.46606,0.66763 -2.40982,0.0398 -4.46365,-0.01 -4.56406,-0.11024 z m 84.48411,-0.0944 c 0,-0.14552 0.35718,-0.26458 0.79375,-0.26458 h 0.79375 v -9.24365 -9.24366 l -0.8599,-0.10671 c -0.47294,-0.0587 0.33073,-0.10575 1.78594,-0.10458 1.45521,0.001 2.19935,0.0488 1.65364,0.10592 l -0.99218,0.10379 v 9.24444 9.24445 h 0.92604 c 0.50932,0 0.92604,0.11906 0.92604,0.26458 0,0.15782 -1.01424,0.26459 -2.51354,0.26459 -1.49931,0 -2.51354,-0.10677 -2.51354,-0.26459 z M 85.989587,127.04562 c 0,-0.0477 0.305745,-0.83912 0.679434,-1.75878 1.939722,-4.77368 5.139631,-15.18775 6.099389,-19.85038 0.651116,-3.16322 0.651769,-7.880819 0.0014,-9.789585 -1.149019,-3.372014 -3.015703,-4.876356 -8.538592,-6.881167 -4.109005,-1.49157 -4.725493,-2.243405 -4.662836,-5.686542 0.09813,-5.392368 3.481804,-13.144118 10.473525,-23.994073 1.176793,-1.826183 1.85234,-2.331969 3.114666,-2.331969 2.033625,0 3.149985,1.959826 3.154133,5.537237 0.0044,3.797827 0.518865,9.140901 1.071624,11.12963 0.705535,2.538391 1.806944,4.593353 3.44994,6.436753 1.47831,1.658621 2.62828,2.449604 4.71441,3.24269 2.22841,0.847177 2.48603,1.819323 0.70694,2.667711 -1.45888,0.695693 -2.86545,0.01664 -5.19974,-2.51029 -2.47416,-2.678348 -3.945664,-4.948079 -5.089677,-7.850606 -1.223865,-3.105123 -1.455117,-4.579572 -1.626066,-10.367708 -0.151342,-5.124298 -0.361933,-6.079947 -1.397054,-6.339745 -1.11057,-0.278736 -1.639767,0.434522 -5.230817,7.050161 -0.987382,1.819011 -2.380971,4.346046 -3.096867,5.615634 -2.268484,4.022993 -3.577779,8.369381 -3.125396,10.375191 0.337093,1.494628 1.282646,2.290693 5.258695,4.42732 5.715583,3.071408 7.842193,5.704811 8.913971,11.038265 0.682043,3.394033 0.4217,10.844583 -0.50488,14.448803 -0.839311,3.26475 -3.374071,9.68824 -4.325767,10.96217 -1.319432,1.76619 -4.840388,4.9881 -4.840388,4.42928 z"
       id="path13" /></g></svg>
