<svg xmlns="http://www.w3.org/2000/svg" viewBox="0 0 64 64">
  <defs>
    <linearGradient id="g" x1="0" y1="0" x2="1" y2="1">
      <stop offset="0" stop-color="#e7dbc8" />
      <stop offset="1" stop-color="#b96f54" />
    </linearGradient>
  </defs>
  <rect width="64" height="64" rx="18" fill="url(#g)" />
  <path
    d="M32 16c8.8 0 16 7.2 16 16s-7.2 16-16 16S16 40.8 16 32s7.2-16 16-16Zm0 7a2.5 2.5 0 0 0-2.5 2.5V30h-4.5a2.5 2.5 0 1 0 0 5H29.5v4.5a2.5 2.5 0 1 0 5 0V35H39a2.5 2.5 0 1 0 0-5h-4.5v-4.5A2.5 2.5 0 0 0 32 23Z"
    fill="#1b1b1a"
    opacity="0.92"
  />
</svg>
